:SAMPLES-PER-SECOND 30
:FULLY-SPECIFIED
:DEGREES
391
root  -0.0160184 34.0236 -25.7107 -158.244 60.8007 -176.593
RightUpLeg  -31.0301 -23.0067 1.32785
RightLeg  17.1333 2.03966 0.486938
RightFoot  9.72283 -0.0106063 0.642089
RightToes  -35.9445 -0.186679 -0.2909
Spine  3.97773 3.2074 -0.326883
Spine1  7.58646 7.33258 -0.919309
HEad  -41.0745 -8.80642 -3.04486
LeftShoulder1  -1.94126e-019 -3.10601e-018 -2.51263e-017
LeftArm  -11.4382 12.6274 -80.9832
LeftForeArm  28.2285 -22.7862 -3.36497
LeftHand  -0.667193 -2.46737 10.066
RightShoulder  -4.96962e-017 0 -2.36833e-017
RightArm  -38.0275 22.6384 60.4163
RightForeArm  51.9229 59.5265 14.1962
RightHand  0.13102 -6.10345 -22.534
LeftUpLeg  -36.9034 -0.823664 7.05734
LeftLeg  28.3299 8.5491 3.89797
LeftFoot  4.74268 -0.0330207 1.01745
LeftToes  -20.7713 2.25955e-006 -3.67304e-008
392
root  0.140203 34.0498 -25.6522 -158.223 61.8263 -176.253
RightUpLeg  -30.596 -22.2814 1.35856
RightLeg  16.8913 2.48901 0.583335
RightFoot  9.86807 -0.0169574 0.718713
RightToes  -36.4387 -0.186259 -0.290561
Spine  3.8492 3.31223 -0.355357
Spine1  7.34812 7.49278 -0.882897
HEad  -41.9582 -9.41904 -2.98066
LeftShoulder1  -1.94126e-019 -3.10601e-018 -2.51263e-017
LeftArm  -11.5101 12.1354 -81.3683
LeftForeArm  27.5172 -23.1027 -3.45806
LeftHand  -0.657711 -2.28778 10.1458
RightShoulder  -4.96962e-017 0 -2.36833e-017
RightArm  -37.7984 25.7114 62.315
RightForeArm  50.9851 51.7961 10.1834
RightHand  0.214883 -6.30765 -27.2176
LeftUpLeg  -36.0519 -0.492646 7.30348
LeftLeg  28.1016 9.22601 4.15937
LeftFoot  4.74652 -0.0367057 1.0797
LeftToes  -21.3881 2.25955e-006 -3.67304e-008
393
root  0.263636 34.0646 -25.6071 -158.066 62.7854 -175.719
RightUpLeg  -30.0717 -21.1363 1.26361
RightLeg  16.7163 2.21411 0.511803
RightFoot  9.71287 -0.0135521 0.661419
RightToes  -35.4729 -0.186097 -0.29043
Spine  3.74826 3.51077 -0.317122
Spine1  7.17612 7.85048 -0.722145
HEad  -42.9061 -10.4667 -2.62101
LeftShoulder1  -1.94126e-019 -3.10601e-018 -2.51263e-017
LeftArm  -10.6582 11.3617 -81.7132
LeftForeArm  27.6323 -23.5905 -3.54747
LeftHand  -0.656431 -2.45302 9.92465
RightShoulder  -4.96962e-017 0 -2.36833e-017
RightArm  -35.5922 30.0563 63.2606
RightForeArm  51.5135 38.2729 5.67805
RightHand  0.118609 -5.90856 -26.9711
LeftUpLeg  -35.3407 -0.0558344 7.55755
LeftLeg  28.1473 9.71311 4.38554
LeftFoot  4.59202 -0.0375774 1.09762
LeftToes  -21.6563 2.25955e-006 -3.67304e-008
394
root  0.365509 34.0368 -25.5683 -158.095 63.492 -175.496
RightUpLeg  -29.9991 -20.3373 1.14555
RightLeg  17.15 2.24968 0.537825
RightFoot  9.42656 -0.0197391 0.745051
RightToes  -35.7455 -0.186153 -0.290475
Spine  3.81569 4.19267 -0.232085
Spine1  7.31405 9.71898 -0.838281
HEad  -43.9951 -12.1081 -1.79096
LeftShoulder1  -1.94126e-019 -3.10601e-018 -2.51263e-017
LeftArm  -8.76901 9.75397 -82.0468
LeftForeArm  27.9555 -24.2389 -3.66268
LeftHand  -0.655256 -2.62231 9.7096
RightShoulder  -4.96962e-017 0 -2.36833e-017
RightArm  -32.3626 33.6479 62.8537
RightForeArm  50.8379 24.6053 2.64132
RightHand  -0.093921 -4.88644 -19.2586
LeftUpLeg  -35.0402 0.739233 7.53127
LeftLeg  28.6062 9.56891 4.41304
LeftFoot  4.23576 -0.0365033 1.08475
LeftToes  -21.8751 2.25955e-006 -3.67304e-008
395
root  0.437998 33.9699 -25.5283 -158.114 64.136 -175.451
RightUpLeg  -30.4843 -19.8555 1.09724
RightLeg  18.2211 2.36174 0.611069
RightFoot  8.78248 -0.0263418 0.836984
RightToes  -35.8764 -0.186387 -0.290663
Spine  3.94648 5.07914 -0.130085
Spine1  7.45725 12.0335 -1.09638
HEad  -44.9533 -13.5826 -0.856638
LeftShoulder1  -1.94126e-019 -3.10601e-018 -2.51263e-017
LeftArm  -6.95366 8.20452 -82.277
LeftForeArm  28.4884 -25.3202 -3.86198
LeftHand  -0.645044 -2.73733 9.4346
RightShoulder  -4.96962e-017 0 -2.36833e-017
RightArm  -28.6117 35.5281 62.7582
RightForeArm  45.3047 15.1892 1.37362
RightHand  -0.130545 -3.94678 -9.31113
LeftUpLeg  -35.1604 1.67057 7.37588
LeftLeg  29.4321 9.18006 4.39601
LeftFoot  3.75282 -0.0327319 1.02949
LeftToes  -22.0906 2.25955e-006 -3.67304e-008
